<svg width="36" height="36" viewBox="0 0 36 36" fill="none" xmlns="http://www.w3.org/2000/svg">
<path d="M26.4375 24C29.5239 24.7733 31.5 25.9593 31.5 27.2885C31.5 29.615 25.4555 31.5 18 31.5C10.5445 31.5 4.5 29.615 4.5 27.2885C4.5 25.9593 6.4761 24.7716 9.5625 24" stroke="black" stroke-width="2.25" stroke-linecap="round" stroke-linejoin="round"/>
<path d="M18 16.5V27V16.5ZM18 16.5C21.3137 16.5 24 13.8137 24 10.5C24 7.18635 21.3137 4.5 18 4.5C14.6863 4.5 12 7.18635 12 10.5C12 13.8137 14.6863 16.5 18 16.5Z" stroke="black" stroke-width="2.25" stroke-linecap="round"/>
<path d="M15 9C15.8284 9 16.5 8.32845 16.5 7.5C16.5 6.67155 15.8284 6 15 6C14.1716 6 13.5 6.67155 13.5 7.5C13.5 8.32845 14.1716 9 15 9Z" stroke="black" stroke-width="2.25" stroke-linecap="round"/>
</svg>
