<svg width="31" height="31" viewBox="0 0 31 31" fill="none" xmlns="http://www.w3.org/2000/svg">
<path d="M9.515 18.5H18.515M2 15.5C2 12.83 2.79176 10.2199 4.27516 7.99981C5.75856 5.77974 7.86697 4.04942 10.3338 3.02763C12.8006 2.00585 15.515 1.7385 18.1337 2.2594C20.7525 2.78031 23.1579 4.06606 25.0459 5.95406C26.9339 7.84207 28.2197 10.2475 28.7406 12.8663C29.2615 15.485 28.9942 18.1994 27.9724 20.6662C26.9506 23.133 25.2203 25.2414 23.0002 26.7248C20.7801 28.2082 18.17 29 15.5 29C13.4068 29.0034 11.3454 28.488 9.5 27.5L2 29L3.5 21.5C2.54285 19.6429 2.0294 17.5891 2 15.5V15.5ZM9.515 12.5H21.515H9.515Z" stroke="black" stroke-width="2.25" stroke-miterlimit="10" stroke-linecap="round"/>
</svg>
