<svg width="500" height="500" viewBox="0 0 500 500" fill="none" xmlns="http://www.w3.org/2000/svg">
<rect width="500" height="500" rx="100" fill="#23395B"/>
<path d="M302.829 52.0001L277.653 77.187L423.249 222.722L448.426 197.535L302.829 52.0001Z" fill="#239EDA"/>
<path d="M286.288 300.714C262.434 324.578 223.609 324.589 199.745 300.734C175.881 276.885 175.87 238.06 199.724 214.196L299.139 114.725L280.63 96.2256L181.215 195.697C150.423 226.504 147.587 274.719 172.491 308.854L88.8254 392.566L107.554 411.285L191.158 327.634C225.339 352.906 273.856 350.162 304.796 319.206L404.211 219.735L385.702 201.236L286.288 300.714Z" fill="#239EDA"/>
<path d="M52.0001 422.965L77.5994 448.55L103.184 422.95L77.5849 397.366L52.0001 422.965Z" fill="#239EDA"/>
<path d="M312.367 262.508L329.55 245.321L255.103 170.895L237.92 188.082L312.367 262.508Z" fill="#239EDA"/>
</svg>
