<svg width="36" height="36" viewBox="0 0 36 36" fill="none" xmlns="http://www.w3.org/2000/svg">
<path d="M18 28.5V31.5V28.5ZM18 4.5V7.5V4.5ZM7.5 18H4.5H7.5ZM31.5 18H28.5H31.5ZM18 22.5C20.4854 22.5 22.5 20.4854 22.5 18C22.5 15.5146 20.4854 13.5 18 13.5C15.5146 13.5 13.5 15.5146 13.5 18C13.5 20.4854 15.5146 22.5 18 22.5Z" stroke="black" stroke-width="2.25" stroke-linecap="round"/>
<path d="M18 28.5C23.799 28.5 28.5 23.799 28.5 18C28.5 12.201 23.799 7.5 18 7.5C12.201 7.5 7.5 12.201 7.5 18C7.5 23.799 12.201 28.5 18 28.5Z" stroke="black" stroke-width="2.25" stroke-linecap="round"/>
</svg>
